<svg width="41" height="54" viewBox="0 0 41 54" fill="none" xmlns="http://www.w3.org/2000/svg">
<g clip-path="url(#clip0_418_122)">
<path d="M11.6602 0.203647C11.6602 0.203647 -0.150412 0.422488 0.0606717 11.0705C0.271756 21.7185 2.4713 31.1228 6.02807 36.351C9.58484 41.5792 18.7085 55.2665 28.9793 53.8221C28.9793 53.8221 34.0357 52.7137 37.8563 50.2229L25.3788 40.5669C25.3788 40.5669 21.7101 42.9023 19.3924 39.8277C17.0747 36.753 9.78699 22.4396 9.78699 22.4396C9.78699 22.4396 7.7677 17.8197 12.2055 15.7893L11.6602 0.203647Z" fill="black"/>
<path d="M13.0411 0.196494C13.0411 0.196494 13.9599 -0.116045 15.6517 0.800061C17.3434 1.71617 17.3482 2.48741 17.3482 2.48741L17.5598 13.137C17.5598 13.137 17.1027 13.7573 16.4929 14.3768C15.8826 14.9973 13.8936 15.9351 13.5829 15.319C13.2738 14.704 13.0411 0.196494 13.0411 0.196494Z" fill="black"/>
<path d="M26.4057 39.4232L29.8116 37.6101C29.8116 37.6101 30.5775 37.4524 31.8085 38.2165C33.04 38.9832 39.5105 44.0415 39.5105 44.0415C39.5105 44.0415 40.5891 44.9615 40.2882 46.0435C39.9872 47.1256 39.2331 49.4451 39.2331 49.4451L26.4057 39.4232Z" fill="black"/>
</g>
<defs>
<clipPath id="clip0_418_122">
<rect width="40.0929" height="53.7609" fill="white" transform="translate(0 0.218262) rotate(-0.311754)"/>
</clipPath>
</defs>
</svg>
