<svg width="38" height="38" viewBox="0 0 38 38" fill="none" xmlns="http://www.w3.org/2000/svg">
<g clip-path="url(#clip0_62_87)">
<path d="M22.0762 0.574757C19.9668 0.904346 18.4873 1.62212 17.2715 2.90386C16.2461 3.98784 15.6089 5.25493 15.25 6.91753C15.1108 7.54741 15.0962 7.92827 15.0669 10.8873L15.0376 14.1685H12.1445H9.25879V17.501V20.8335L12.1372 20.8482L15.0083 20.8702L15.0303 29.4175L15.0449 37.9722H18.4873H21.9297V29.4029V20.8335H24.7861C26.3608 20.8335 27.6426 20.8262 27.6426 20.8116C27.8403 19.4786 28.4922 14.2637 28.4702 14.2198C28.4556 14.1905 26.9761 14.1685 25.1816 14.1685H21.9224L21.9443 11.4366C21.9663 8.77055 21.9736 8.70464 22.1421 8.27983C22.4863 7.4229 23.2041 6.9102 24.2881 6.77104C24.581 6.73442 25.7017 6.6978 26.7856 6.6978H28.7412L28.7266 3.70952L28.7046 0.728565L27.7524 0.640675C26.1924 0.501514 22.8086 0.457569 22.0762 0.574757Z" fill="black" fill-opacity="0.7"/>
</g>
<defs>
<clipPath id="clip0_62_87">
<rect width="37.5" height="37.5" fill="white" transform="translate(0.25 0.472229)"/>
</clipPath>
</defs>
</svg>
