<svg width="38" height="38" viewBox="0 0 38 38" fill="none" xmlns="http://www.w3.org/2000/svg">
<path d="M11.7847 0.545464C9.36767 0.648003 7.7124 0.95562 6.31347 1.5562C5.00244 2.12017 4.22607 2.64019 3.25928 3.59966C1.95557 4.89605 1.14258 6.35356 0.629883 8.30913C0.175781 10.0376 0.0732422 12.0225 0.0732422 19.2222C0.0732422 26.3047 0.168457 28.3116 0.593261 30.0401C1.64795 34.3394 4.79736 37.0786 9.43359 37.7159C10.7593 37.8916 13.5425 37.9722 18.8599 37.9722C23.8037 37.9722 26.6528 37.899 27.9346 37.7451C30.5566 37.4375 32.6074 36.5293 34.2261 34.9766C36.0498 33.2188 37.0166 31.1167 37.3681 28.1211C37.5073 26.9493 37.5073 11.3194 37.3681 10.2134C37.0825 7.97222 36.416 6.12651 35.3613 4.71294C34.8413 4.00982 33.728 2.9478 33.0322 2.47173C31.4575 1.40972 29.5605 0.823784 27.063 0.611382C25.8838 0.516167 13.7842 0.464897 11.7847 0.545464ZM27.6269 4.08306C29.7143 4.39067 30.8862 4.91069 32.0141 6.0313C32.7466 6.76372 33.1494 7.40825 33.5083 8.40434C34.1089 10.0889 34.1675 10.9825 34.1675 19.2588C34.1675 24.0269 34.1382 26.3194 34.0722 27.0884C33.8598 29.6299 33.3545 30.9995 32.168 32.2666C30.9302 33.585 29.3848 34.2368 26.9897 34.4566C25.6933 34.5811 14.978 34.6397 12.5098 34.5371C11.3965 34.4932 10.2319 34.42 9.91699 34.376C8.53271 34.1856 7.19238 33.6949 6.35742 33.0869C5.8374 32.6988 5.00244 31.7906 4.69482 31.2779C4.07959 30.2525 3.71338 28.8096 3.58887 26.9786C3.36914 23.6534 3.44238 12.2422 3.6914 10.3526C3.95508 8.39702 4.56299 7.07866 5.71289 5.96538C6.97265 4.74224 8.62792 4.14898 11.1914 3.98784C11.748 3.95855 15.4907 3.93657 19.519 3.95122C25.7666 3.96587 26.9604 3.98052 27.6269 4.08306Z" fill="black" fill-opacity="0.7"/>
<path d="M27.8467 7.21048C27.019 7.62796 26.6235 8.27249 26.6235 9.22464C26.6235 9.91312 26.7847 10.3233 27.2534 10.792C27.7222 11.2534 28.1323 11.4219 28.8208 11.4219C29.3115 11.4219 29.4727 11.3926 29.8242 11.2168C30.564 10.8506 30.9814 10.2134 31.04 9.3638C31.0913 8.60941 30.9228 8.16995 30.4028 7.64261C29.9194 7.15921 29.4946 6.99076 28.7842 6.99076C28.3887 6.99076 28.2129 7.0347 27.8467 7.21048Z" fill="black" fill-opacity="0.7"/>
<path d="M17.1094 9.74467C15.1831 10.0962 13.4766 10.9971 12.041 12.44C10.1367 14.337 9.22119 16.5562 9.22119 19.2222C9.22119 20.8335 9.52148 22.1592 10.188 23.4922C12.2388 27.5645 16.7505 29.6519 21.1377 28.5606C22.8662 28.1285 24.1992 27.3814 25.4956 26.1289C26.6602 25.001 27.4438 23.7705 27.9346 22.2984C28.2861 21.2364 28.418 20.4161 28.418 19.2222C28.418 18.0357 28.2861 17.208 27.9419 16.168C27.4731 14.7618 26.792 13.6485 25.73 12.5498C24.2798 11.0557 22.4707 10.0889 20.4785 9.73735C19.6655 9.59819 17.9004 9.59819 17.1094 9.74467ZM20.0098 13.0992C23.3643 13.7437 25.5908 17.0396 24.9463 20.4161C24.5508 22.4595 23.0493 24.2759 21.1304 25.0157C20.1929 25.3819 19.6509 25.4698 18.5669 25.4258C17.7978 25.3965 17.4976 25.3526 16.9922 25.1914C14.7729 24.4883 13.1543 22.6939 12.7002 20.438C12.5244 19.5664 12.5903 18.2115 12.854 17.3912C13.5425 15.2085 15.3809 13.5459 17.5708 13.1065C18.2227 12.9747 19.3506 12.9747 20.0098 13.0992Z" fill="black" fill-opacity="0.7"/>
</svg>
