<svg width="42" height="42" viewBox="0 0 42 42" fill="none" xmlns="http://www.w3.org/2000/svg">
<g clip-path="url(#clip0_62_98)">
<path d="M27.444 4.13587C24.179 4.72805 21.5942 7.11276 20.738 10.3457C20.5859 10.8979 20.5539 11.226 20.5539 12.3303C20.5459 13.0585 20.5699 13.8028 20.6099 13.9948L20.6659 14.3469L20.1298 14.2909C16.6007 13.9708 13.7519 13.1626 10.911 11.6821C8.28625 10.3137 5.55744 8.16107 3.88494 6.15247C3.62886 5.84838 3.38879 5.61631 3.34878 5.63232C3.30077 5.64832 3.13272 5.96842 2.96467 6.35253C1.81232 8.95331 2.02839 11.9542 3.52483 14.2909C3.96496 14.9711 4.68518 15.7793 5.26935 16.2435L5.86953 16.7316H5.54143C4.83722 16.7316 3.37279 16.3315 2.58055 15.9314C2.4125 15.8434 2.23645 15.7713 2.20444 15.7713C2.09241 15.7713 2.23645 17.2358 2.4205 17.94C3.14872 20.7008 5.19733 22.8855 7.92614 23.7977C8.37428 23.9498 8.69437 24.0938 8.63035 24.1178C8.27025 24.2539 7.08589 24.3499 6.16562 24.3179L5.12531 24.2699L5.18133 24.4779C5.26935 24.83 5.86153 25.9504 6.22964 26.4625C7.63806 28.4471 9.95075 29.8075 12.2074 29.9916C12.5435 30.0156 12.8236 30.0636 12.8236 30.1036C12.8236 30.2316 11.0311 31.344 9.93474 31.8881C7.438 33.1285 4.96526 33.6647 2.0604 33.6006L0.579956 33.5686L0.99608 33.8327C1.61226 34.2168 3.46882 35.1531 4.30106 35.4972C8.7904 37.3618 14.032 37.7859 18.9774 36.6896C26.2516 35.0731 32.2454 30.0156 35.2703 22.9335C36.5587 19.9086 37.2069 16.9317 37.2789 13.7307L37.3029 12.2903L37.8871 11.8262C38.6233 11.226 39.4555 10.4337 40.0877 9.72954C40.6239 9.12136 41.4081 8.07305 41.3601 8.03303C41.3441 8.01703 41.104 8.09705 40.8239 8.20909C39.7596 8.64121 37.3029 9.2654 36.9348 9.19338C36.8468 9.17737 36.9108 9.09735 37.1428 8.9453C37.751 8.54519 38.8313 7.43286 39.2875 6.74465C39.6876 6.15247 40.2718 4.97612 40.2718 4.76806C40.2718 4.72005 39.7836 4.92811 39.1834 5.2242C38.0951 5.75235 36.6787 6.26451 35.5744 6.52859L34.9902 6.66463L34.5021 6.21649C32.6295 4.47998 29.9327 3.68774 27.444 4.13587Z" fill="black" fill-opacity="0.7"/>
</g>
<defs>
<clipPath id="clip0_62_98">
<rect width="40.9722" height="40.9722" fill="white" transform="translate(0.499939 0.166687)"/>
</clipPath>
</defs>
</svg>
