<svg width="170" height="209" viewBox="0 0 170 209" fill="none" xmlns="http://www.w3.org/2000/svg">
<g clip-path="url(#clip0_421_17)">
<path fill-rule="evenodd" clip-rule="evenodd" d="M30.4631 3.40191C47.9423 1.30141 64.6 0.114169 81.1208 0.0228424C97.596 -0.114147 113.25 0.662126 128.811 2.53431L128.538 21.2562C137.072 24.2243 144.466 27.923 150.718 32.3523C156.97 36.7816 161.899 41.6676 165.869 47.5125C168.926 88.8376 170.295 118.93 169.976 139.752C169.656 160.302 167.648 170.301 163.952 170.439C158.203 180.438 149.256 188.382 137.117 194.96C124.886 201.396 109.643 206.009 91.0242 208.977C69.5276 201.444 51.502 193.132 36.2134 183.315C20.9705 173.497 8.96779 162.723 0.0228271 150.621C0.0684647 147.744 0.387928 139.161 0.798666 123.999C1.16377 108.792 1.80269 87.9243 2.53289 60.3438C3.76511 56.7364 6.86846 52.2614 11.843 46.9188C16.7718 41.4849 23.5262 35.3204 32.2886 28.2426C30.6 24.8636 29.6873 21.3475 29.3678 17.1465C29.0027 12.9455 29.3691 8.42485 30.4631 3.40191Z" fill="black" stroke="black" stroke-width="0.036" stroke-miterlimit="10"/>
<path fill-rule="evenodd" clip-rule="evenodd" d="M33.4295 6.64399C45.0671 5.22843 55.6094 4.13252 66.106 3.72155C76.3288 3.21925 85.2282 3.40191 95.2685 3.72155C105.217 3.94986 115.349 4.22384 125.846 4.90879L124.432 22.3978C109.235 23.8133 94.4482 25.0462 79.5247 25.9138C64.4643 26.7358 50.0429 27.375 35.2107 27.649C33.6133 24.0416 32.4724 20.7082 32.2899 17.1465C31.8778 13.5391 32.4255 10.2057 33.4295 6.64399Z" fill="#80C2FF" stroke="black" stroke-width="0.036" stroke-miterlimit="10"/>
<path fill-rule="evenodd" clip-rule="evenodd" d="M34.6161 31.7587C41.7356 31.0281 52.1409 30.2518 66.6993 29.4299C81.2121 28.5166 99.0095 27.6034 120.962 26.5074C111.881 36.6903 104.854 45.9599 99.3771 54.4989C93.808 62.9466 90.2952 70.481 88.2872 77.2848C73.6375 79.705 59.6724 80.0703 45.7073 77.8784C31.6509 75.6866 18.3247 71.2116 4.86166 64.4535C8.83213 57.7867 13.3046 51.8048 18.2791 46.3252C23.2067 40.8457 28.5919 36.051 34.6161 31.7587Z" fill="#80C2FF" stroke="black" stroke-width="0.036" stroke-miterlimit="10"/>
<path fill-rule="evenodd" clip-rule="evenodd" d="M91.8 78.4264C92.3476 73.8601 95.4523 67.3759 101.11 58.6086C106.723 49.75 114.894 38.9735 125.617 25.9138C132.875 28.3796 139.674 31.4391 146.017 35.2748C152.317 39.0191 158.157 43.4941 163.542 48.6997C146.109 55.4578 131.87 61.1657 119.777 66.1887C107.773 71.1203 98.51 75.1386 91.8 78.4264Z" fill="#80C2FF" stroke="black" stroke-width="0.036" stroke-miterlimit="10"/>
<path fill-rule="evenodd" clip-rule="evenodd" d="M92.9409 82.536C92.2551 116.967 92.1194 143.862 92.3464 164.272C92.5746 184.546 93.2604 197.56 94.4013 203.863C106.541 201.625 117.859 197.607 129.404 191.625C140.813 185.553 151.721 178.016 162.63 168.291C165.321 165.004 166.599 153.907 166.462 134.502C166.326 114.911 164.773 87.8786 161.807 52.17C149.12 58.0149 137.116 63.4032 125.615 68.5174C113.935 73.586 103.393 78.198 92.9409 82.536Z" fill="#80C2FF" stroke="black" stroke-width="0.036" stroke-miterlimit="10"/>
<path fill-rule="evenodd" clip-rule="evenodd" d="M4.26711 67.9238C9.28724 74.7733 18.4604 79.3853 32.2886 81.9424C46.1168 84.4539 63.9154 84.9105 86.5517 83.1296C86.506 114.408 87.008 139.615 87.6926 160.162C88.3784 180.665 89.4281 195.279 90.8416 205.05C75.9637 200.529 61.4966 193.954 47.0752 184.639C32.5624 175.185 18.5973 163.861 4.4953 149.616C3.81074 134.638 3.67382 120.802 3.58255 107.057C3.49127 93.2212 3.71946 80.5268 4.26711 67.9238Z" fill="#80C2FF" stroke="black" stroke-width="0.036" stroke-miterlimit="10"/>
<path fill-rule="evenodd" clip-rule="evenodd" d="M30.6 146.466L30.5087 146.419L30.4631 146.374L30.3718 146.327V146.283L30.2806 146.239L30.2349 146.147L30.1436 146.056V146.009L30.098 145.965V145.873L30.0067 145.782L29.9154 145.691V145.646L29.8698 145.555V145.511L29.7785 145.327V145.28L29.6873 145.191V145.1L29.6416 145.008V144.872L29.5503 144.781V144.69L29.4591 144.554V144.416L29.4134 144.28V144.236L29.3222 144.052V143.914V143.825L29.2765 143.641L29.2309 143.55V143.458L29.1852 143.23V143.139L29.094 143.003V142.819V142.683L29.0027 142.499V142.364V142.18L28.9571 141.996V141.814L28.9114 141.676L28.8658 141.448V141.312V141.128L28.7745 140.9V140.716V140.58L28.6832 140.305V140.077V139.941L28.592 139.666V139.484V139.253V139.025L28.5463 138.797V138.568L28.5007 138.293L28.455 138.065V137.884V137.653V137.517L28.4094 137.333L28.3638 137.105V136.921V136.785V136.557L28.2725 136.373V136.191V135.961V135.825V135.641L28.1812 135.413V135.229V135.093V134.865L28.0899 134.681V134.499V134.315V134.132L27.9987 133.948V133.719V133.538V133.4V133.171L27.953 132.987V132.806L27.9074 132.622V132.438L27.8618 132.254V132.026L27.8161 131.706L27.7705 131.295V130.931L27.6792 130.476L27.5879 130.018V129.517L27.4967 129.015V128.467L27.4054 127.916L27.3141 127.277V126.685L27.2228 126.09L27.1772 125.406L27.0859 124.675L27.0403 123.989L26.9946 123.259L26.9034 122.484L26.8121 121.616L26.7208 120.838L26.6295 119.971L26.5383 119.149V118.237L26.447 117.369L26.3557 116.364L26.2644 115.449L26.1732 114.446L26.0819 113.395L25.9906 112.392L25.8993 111.342L25.8081 110.245L25.7168 109.103L25.6255 107.964L25.4886 108.556L25.443 109.151L25.3973 109.699L25.3061 110.339L25.1691 110.886L25.1235 111.434L25.0322 112.076L24.9866 112.674L24.941 113.222L24.804 113.77L24.7128 114.411L24.6671 114.959L24.6215 115.552L24.4846 116.102L24.3933 116.65L24.3477 117.243L24.302 117.882L24.1651 118.384L24.0738 118.979L24.0282 119.571L23.9369 120.166L23.8 120.669L23.7544 121.261L23.7087 121.856L23.6175 122.404L23.5262 122.999L23.4349 123.591L23.3893 124.141L23.298 124.689L23.1611 125.282L23.1154 125.832L23.0698 126.38V126.609L22.9785 126.744V126.928L22.9329 127.112V127.34V127.476L22.8873 127.66V127.844V128.025L22.796 128.209V128.393V128.575L22.7503 128.713V128.941L22.6591 129.077V129.261V129.489L22.6134 129.58V129.809V129.993L22.5678 130.128V130.357V130.541L22.4765 130.676V130.86L22.4309 131.044V131.18V131.408L22.3396 131.592L22.3852 131.776V131.957L22.294 132.096V132.324L22.2483 132.552V132.736L22.1571 132.918V133.148L22.1114 133.284V133.513V133.696L22.0201 133.878L22.0658 134.109L21.9745 134.244V134.473L21.9289 134.657V134.792L21.8376 134.976V135.16L21.792 135.296V135.48L21.7007 135.616V135.751L21.7463 135.98L21.655 136.071V136.255L21.5638 136.391L21.6094 136.574L21.5181 136.666V136.847L21.4269 136.939L21.4725 137.122L21.3812 137.169V137.305L21.3356 137.441V137.577L21.2443 137.715V137.851L21.1987 137.986L21.1074 138.033V138.169L21.0618 138.26V138.352L20.9705 138.443L20.9248 138.532V138.623L20.8336 138.714L20.7879 138.761V138.806L20.6967 138.853L20.6054 138.897L20.651 138.988H20.5597H20.4685L20.5141 139.08L20.4228 139.124H20.3316L20.2859 139.08V139.124H20.1946L20.149 139.171L20.0577 139.124L19.9665 139.08H19.9208L19.8295 139.033L19.7839 138.988L19.6926 138.941H19.647L19.5557 138.897L19.4644 138.806L19.4188 138.714L19.3275 138.67V138.623L19.2819 138.487H19.1906V138.396L19.0993 138.352L19.0537 138.26V138.169L18.9624 138.033V137.986L18.8712 137.895V137.806L18.8255 137.715L18.7342 137.577V137.488L18.643 137.396V137.258L18.5973 137.122V137.031L18.5061 136.895V136.76V136.621L18.4148 136.486V136.35L18.3691 136.212V136.076V135.985L18.2779 135.893V135.805V135.713V135.622L18.1866 135.486V135.395V135.304V135.212L18.0953 135.076V134.985V134.847V134.758V134.667L18.0497 134.529V134.44V134.348L18.004 134.21L17.9584 134.074V133.939V133.847V133.756L17.8671 133.572V133.481V133.345V133.254L17.7759 133.118V132.934V132.843V132.707V132.616L17.6846 132.48V132.296V132.205V132.116V132.025V131.886L17.5933 131.751V131.615V131.524V131.432V131.297L17.5477 131.158V131.023V130.931L17.502 130.84V130.704V130.613L17.4564 130.477V130.341V130.25V130.114V130.023V129.932L17.3651 129.794V129.658V129.522V129.431V129.339L17.2738 129.204V129.068V128.93V128.838L17.1826 128.11L17.0457 127.38L16.9544 126.649L16.8631 125.919L16.7718 125.141L16.6806 124.413L16.498 123.635L16.4524 122.905L16.3611 122.174L16.2698 121.399L16.1785 120.669L16.0873 119.894L15.9047 119.116L15.8134 118.341L15.7222 117.566L15.6765 116.835L15.5852 116.058L15.494 115.283L15.4027 114.5L15.3114 113.725L15.2201 112.948L15.1289 112.173L15.0376 111.398L14.9463 110.62L14.855 109.845L14.7638 109.07L14.6725 108.248L14.5812 107.473L14.4899 106.696L14.3987 105.874L14.3074 105.099L14.2161 104.277L14.1705 104.459V104.596V104.779V104.916V105.144L14.1248 105.236V105.464V105.601V105.785L14.0336 105.921L14.0792 106.105V106.286V106.47L13.9879 106.606V106.789V106.925V107.154V107.292L13.9423 107.383V107.611V107.795V107.931L13.8967 108.067V108.251V108.386V108.615L13.8054 108.706V108.934L13.851 109.073V109.254V109.438L13.7597 109.574V110.076L13.7141 110.531L13.6685 111.034L13.5772 111.532L13.5316 111.987V112.49L13.4859 112.945L13.3946 113.447L13.349 113.903L13.3034 114.361V114.862L13.2577 115.32L13.1665 115.822L13.1208 116.323L13.0752 116.781V117.236L12.9839 117.738L12.9383 118.194L12.8926 118.649L12.8014 119.107L12.847 119.608L12.7557 120.11L12.7101 120.566L12.6644 121.03L12.5732 121.485L12.6188 122.033L12.5275 122.491L12.4819 122.948L12.4363 123.403L12.345 123.861V124.409L12.2993 124.864V125V125.184L12.2537 125.368V125.552V125.733V125.962V126.192V126.374L12.2081 126.554V126.782V127.011V127.286L12.1168 127.47L12.1624 127.742V127.971L12.0712 128.202L12.1168 128.43V128.703V128.978L12.0255 129.206V129.526L11.9799 129.754V130.074V130.349L11.9342 130.577V130.944L11.843 131.217L11.8886 131.536V131.856L11.7973 132.131L11.843 132.495L11.7517 132.771V132.906L11.7061 133.042V133.18L11.6148 133.225V133.36V133.544L11.5691 133.591V133.68L11.4779 133.771V133.863L11.4322 133.954L11.341 134.001V134.09H11.2953V134.181L11.204 134.272H11.1584V134.364H11.0671V134.408H11.0215H10.9302H10.8846V134.499H10.7933L10.7477 134.455H10.6564H10.5651L10.5195 134.408L10.4282 134.364L10.3826 134.319H10.2913L10.2 134.272L10.1544 134.228V134.181L10.0631 134.137L10.0175 134.045L9.92619 134.001V133.954L9.83491 133.863L9.78928 133.771L9.698 133.68V133.636L9.60672 133.544L9.56109 133.453V133.409L9.46981 133.317V133.273V133.226L9.42417 133.135V133.09L9.3329 132.999V132.907V132.863L9.24162 132.772V132.725V132.634L9.19599 132.545V132.498V132.453L9.10471 132.315V132.226V132.088V132.044L9.01344 131.952V131.861V131.817V131.725V131.678L8.92216 131.543V131.498V131.451V131.36V131.316V131.224V131.133L8.87652 131.042L8.83089 130.95V130.906V130.815V130.723V130.632V130.543V130.496V130.405V130.314V130.269V129.95V129.583V129.31V128.991L8.78525 128.624V128.304L8.83089 127.985V127.665V127.345V126.935L8.87652 126.662V126.295V125.916L8.92216 125.596V125.185V124.819L8.9678 124.455V124.089L9.05907 123.723L9.01344 123.359L9.10471 122.948V122.581L9.15035 122.17L9.19599 121.806V121.395L9.24162 120.984L9.3329 120.62V120.162L9.37854 119.754L9.42417 119.387L9.51545 118.932L9.56109 118.521V118.155L9.60672 117.79L9.698 117.471V117.107L9.74364 116.74L9.78928 116.376V116.01L9.88055 115.69L9.92619 115.326V114.959L9.97183 114.595L10.0631 114.276L10.0175 113.909L10.1087 113.589L10.1544 113.225V112.814L10.2 112.45L10.2913 112.175V111.764L10.3369 111.4L10.3826 111.034V110.67L10.4738 110.303L10.5195 109.983V109.619L10.5651 109.253L10.6564 108.889L10.702 108.522V108.202L10.7477 107.838L10.8389 107.472L10.7933 107.108L10.8846 106.833V106.513V106.24L10.9302 105.965V105.692V105.417L10.9759 105.143V104.823L11.0671 104.595V104.275L11.0215 103.998L11.1128 103.724V103.45L11.0671 103.084L11.1584 102.81V102.536V102.262L11.204 101.989V101.669L11.2497 101.441V101.121V100.847L11.341 100.573L11.2953 100.253V99.9793L11.3866 99.7054V99.4314L11.4322 99.1574V98.8377V98.5638L11.4779 98.2441V97.9702L11.5691 97.6048L11.5235 97.1926L11.6148 96.8273L11.5691 96.4163L11.6604 96.051V95.6857L11.7061 95.3661V95.0008L11.7973 94.6811L11.7517 94.3615L11.843 94.0419L11.8886 93.7679V93.4026L11.9799 93.1286L11.9342 92.8546L12.0255 92.6263V92.3536L12.0712 92.1253L12.1624 91.897V91.623L12.2081 91.4403V91.1664L12.2993 90.9837L12.2537 90.7554L12.345 90.5727L12.3906 90.4357V90.2531L12.4819 90.0704V89.9334L12.5275 89.7965L12.6188 89.6595V89.5225L12.6644 89.4311V89.3398L12.7557 89.2942V89.1572L12.8014 89.1115V89.0202L12.8926 88.9289V88.8832L12.9383 88.7919L13.0295 88.7005V88.6549H13.1208L13.0752 88.5179H13.1665V88.4722L13.2577 88.4266L13.3034 88.3809V88.3352H13.3946L13.4403 88.2896V88.2439L13.5316 88.1982H13.6228L13.6685 88.1526L13.7597 88.1982L13.8054 88.1526H13.8967L13.9879 88.1982H14.0336L14.1248 88.2439H14.1705L14.2618 88.3352H14.353L14.3987 88.4266L14.4899 88.4722L14.5356 88.5179L14.5812 88.5636L14.6269 88.6092L14.7181 88.7005V88.7462L14.7638 88.8832V88.9289L14.855 88.9745L14.9463 89.1115V89.1572L14.992 89.2942L15.0376 89.3855L15.0832 89.4311V89.5681L15.1745 89.6595V89.7965L15.2658 89.9334V90.0248L15.3114 90.1618V90.2988L15.4027 90.4357V90.5727L15.494 90.7554V90.8467L15.5396 91.075L15.5852 91.2577L15.6309 91.486V91.7143V91.9426L15.7222 92.1709V92.3993L15.8134 92.6732V92.9929L15.9047 93.2669V93.5865L15.996 93.9061V94.1801L16.0873 94.5454V94.8651L16.1329 95.2304L16.1785 95.5957L16.2242 96.0066L16.3154 96.4176V96.7829L16.4067 97.2395V97.6962L16.498 98.1071V98.5638L16.5893 99.0204V99.477L16.6806 99.9793V100.482L16.7718 100.984L16.8631 101.532V102.08L16.9544 102.628V103.267L17.0457 103.952L17.1369 104.637L17.2282 105.322V105.961L17.3195 106.647L17.4108 107.378L17.502 108.017L17.5933 108.701V109.432L17.6846 110.115L17.7759 110.801L17.8671 111.532L17.9584 112.263L18.0497 112.993L18.141 113.724L18.2322 114.455L18.2779 115.183L18.3691 115.869L18.4604 116.644L18.643 117.421L18.7342 118.196L18.8255 118.927L18.8712 119.702L18.9624 120.433L19.145 121.255L19.2363 122.03L19.3275 122.76L19.4188 123.582L19.5557 124.404L19.647 125.179L19.7839 126.001L19.8752 125.27L20.0121 124.54L20.149 123.856L20.2403 123.17L20.3772 122.439L20.4228 121.709L20.5597 121.025L20.6967 120.294L20.7879 119.517L20.8792 118.833L21.0161 118.103L21.1074 117.372L21.1987 116.597L21.3356 115.866L21.4269 115.091L21.5638 114.361L21.6094 113.583L21.7463 112.853L21.8376 112.078L21.9289 111.347L22.0658 110.572L22.1114 109.75L22.2483 108.975L22.294 108.244L22.4309 107.467L22.4765 106.647L22.5678 105.87L22.6591 105.049L22.7503 104.273L22.8873 103.451L22.9329 102.675L22.9785 101.853V101.761L23.0698 101.624V101.442V101.305L23.0242 101.168V100.985L23.1154 100.848V100.757V100.62V100.437V100.3V100.118L23.1611 99.9806V99.8436V99.7523V99.5696V99.4314L23.2524 99.2944L23.2067 99.1117V98.9747V98.8834V98.7008L23.298 98.5638V98.4268V98.2441V98.1071V97.9245L23.3436 97.8788V97.6962V97.5592V97.3765V97.2395V97.0569L23.3893 96.9656V96.7372V96.6003V96.4176L23.4805 96.2806V96.1436V95.961V95.7783L23.5262 95.6413V95.4587V95.3674V95.2304L23.5718 95.0934V94.9107V94.7737V94.5911L23.6631 94.4998V94.3628V94.2258L23.7087 94.1344V93.9518V93.8605L23.8 93.7235V93.6322V93.4952L23.8456 93.3582V93.2669V93.1755L23.9369 93.0842V92.9929L23.9826 92.9015V92.7189L24.0738 92.5819V92.4906L24.1195 92.3536V92.2623L24.2108 92.1253V91.9883L24.2564 91.9426V91.8056L24.3477 91.7143V91.623L24.3933 91.5317L24.4846 91.4403V91.349L24.5302 91.3033L24.6215 91.2577V91.1664L24.7128 91.1207H24.7584V91.0294L24.8497 90.9837L24.8953 90.938L24.9866 90.9837V90.8924H25.0322H25.1235L25.2148 90.8467H25.2604H25.3517L25.3973 90.8924H25.4886H25.5799L25.6255 90.938L25.7168 90.9837L25.8081 91.075L25.8537 91.1664L25.945 91.212L25.9906 91.3033L26.0819 91.3947L26.1732 91.486L26.2188 91.623V91.7143L26.3101 91.8513L26.4014 92.0339L26.447 92.2166L26.5383 92.3993L26.6295 92.5819V92.7646L26.7208 92.9015L26.7665 93.1755L26.8577 93.4038L26.949 93.6322V93.8605L26.9946 94.1344L27.0859 94.4084V94.6824L27.1772 94.9564L27.2685 95.276V95.5957L27.3141 95.8697V96.1893L27.4054 96.5546L27.4967 96.9199V97.0569V97.1482V97.3309V97.4222L27.5879 97.6048V97.7418V97.9245V98.1528V98.2898L27.6792 98.5181V98.7464V98.9291V99.1117L27.7705 99.4314V99.614V99.888V100.116V100.39L27.8618 100.664V100.938V101.212L27.953 101.578V101.806V102.171V102.491L27.9987 102.81L28.0443 103.13V103.45V103.769L28.1356 104.18V104.546V104.865L28.2269 105.87L28.3181 106.829L28.4094 107.741V108.655L28.5007 109.614L28.592 110.529L28.6832 111.441L28.7745 112.355V113.223L28.8658 114.093L28.9571 115.005L29.0483 115.873L29.1396 116.743L29.1852 117.61L29.2765 118.478L29.3222 119.253L29.3678 120.123L29.4591 120.898L29.5503 121.72L29.6416 122.539L29.7329 123.317L29.8242 124.185L29.9154 124.915L30.0067 125.69L30.0524 126.468L30.1436 127.196L30.2349 127.973L30.3262 128.704L30.4175 129.435L30.4631 130.165L30.5544 130.94L30.7369 131.624V131.808V132.036V132.174L30.8282 132.403V132.631V132.767L30.8738 132.995V133.179V133.363V133.499L30.9651 133.774V133.91V134.093L31.0564 134.366V134.504V134.686V134.914L31.1477 135.098V135.282V135.466L31.1933 135.694V135.83L31.2389 136.058L31.2846 136.287V136.425V136.653V136.789L31.3759 137.017V137.245V137.384L31.4671 137.612V137.796V138.069L31.5584 138.388V138.664L31.604 138.983L31.6497 139.258L31.6953 139.578V139.806V139.988L31.7866 140.307V140.538V140.767L31.8779 140.995V141.223V141.407V141.635L31.9691 141.819V142.001V142.232V142.367V142.459L32.0604 142.687V142.871V142.962V143.144V143.235V143.326V143.462V143.553V143.645L32.1517 143.78V143.872V143.919V144.054V144.146H32.0604V144.281V144.373V144.417V144.555V144.647V144.691V144.827V144.874V144.965L32.0148 145.009V145.101V145.145V145.192V145.328V145.372H31.9235V145.511V145.555V145.602L31.8779 145.691V145.738V145.782L31.7866 145.829V145.92V145.965H31.741V146.012L31.6497 146.1V146.147V146.192L31.604 146.239V146.283V146.33H31.5128V146.374L31.4671 146.419H31.3759V146.466V146.51L31.3302 146.466V146.557H31.2389H31.1477L31.102 146.601V146.648L31.0108 146.601V146.648L30.9651 146.601H30.8738L30.7826 146.557H30.7369L30.6457 146.51L30.6 146.466ZM46.3906 107.15H46.345L46.2537 107.103L46.1624 107.058H46.1168L46.0255 106.967H45.9342L45.8886 106.923L45.7973 106.876H45.7517L45.6604 106.831V106.784H45.5691L45.5235 106.737H45.4322L45.3866 106.646L45.2953 106.602H45.204L45.1584 106.51H45.0671L44.9302 106.419L44.8389 106.372L44.7933 106.328L44.702 106.236H44.6564L44.5651 106.192L44.4738 106.145L44.4282 106.101L44.3369 106.009L44.2 105.962L44.1087 105.874H44.0631L43.9718 105.782L43.8805 105.735H43.8349L43.7436 105.645H43.6524L43.6067 105.554L43.5154 105.508H43.4698L43.3785 105.417L43.2873 105.373H43.2416L43.1503 105.281H43.1047L43.0134 105.19L42.9678 105.144H42.8765L42.7852 105.053L42.7396 105.007L42.6483 104.962L42.5571 104.911H42.5114L42.4202 104.82L42.3745 104.774L42.2832 104.728L42.192 104.683H42.1463L42.055 104.591L41.9638 104.546L41.9181 104.5L41.8269 104.454H41.7812L41.6899 104.363V105.002L41.6443 105.64V106.28V106.919V107.558L41.5987 108.153V108.792V109.432V110.071V110.71L41.553 111.305V111.944V112.584L41.5987 113.223V113.862V114.41V115.049L41.5074 115.689L41.553 116.328V116.878V117.518V118.11V118.705V119.344L41.5987 119.939V120.578V121.171V121.719V122.358L41.553 122.909V123.548V124.14V124.278V124.414V124.598V124.734V124.918V125.053L41.6443 125.237V125.419V125.603V125.787V125.922V126.106V126.335V126.518V126.7V126.884V127.112V127.25L41.6899 127.479V127.66V127.891V128.072V128.301V128.485V128.713V128.944V129.172V129.4V129.584V129.813V130.041V130.269V130.498V130.726V130.957V131.185V131.413L41.7812 131.686V131.917V132.098V132.327V132.557V132.739V132.97V133.151L41.8269 133.379V133.563V133.699V133.93V134.111V134.295V134.479V134.615V134.843V135.027V135.211V135.347V135.482V135.666V135.85V136.032V136.216V136.307V136.491V136.719V136.903L41.8725 137.131V137.315V137.544V137.772V137.908V138.183V138.319V138.547V138.731V138.915V139.143V139.327V139.555V139.737V139.875V140.103V140.287V140.469L41.8269 140.607V140.835V141.017V141.2V141.336V141.52V141.704V141.888V142.069V142.208V142.389L41.7812 142.527L41.9181 142.619L42.055 142.663L42.192 142.754L42.3745 142.846L42.5114 142.89L42.6483 142.981L42.7852 143.073L42.9222 143.117L43.0591 143.208L43.2416 143.3H43.3785L43.5154 143.391L43.6524 143.435L43.7893 143.527L43.9262 143.618L44.1087 143.665L44.2457 143.754L44.3826 143.845L44.5195 143.892L44.6564 143.983L44.8389 144.072L44.9759 144.119H45.1128L45.2497 144.21L45.3866 144.302L45.5235 144.346L45.6148 144.393L45.7517 144.482L45.8886 144.573L46.0712 144.62L46.2081 144.711L46.345 144.756L46.3906 144.8L46.4819 144.847L46.5732 144.892L46.6188 144.983L46.7101 145.03V145.074L46.8014 145.119V145.166L46.847 145.21V145.257L46.9383 145.301V145.393L46.9839 145.484V145.528L47.0752 145.62V145.667L47.1665 145.802L47.2121 145.894V145.938V145.985L47.3034 146.076V146.165V146.212L47.349 146.348V146.439V146.486L47.4403 146.575V146.622V146.713L47.5316 146.804V146.893V146.984V147.031L47.5772 147.123V147.258V147.303V147.35L47.6685 147.485V147.577V147.621V147.759V147.804L47.7597 147.895V148.031V148.078V148.214V148.258V148.396V148.441V148.576L47.851 148.668V148.806V148.895V148.942V149.077V149.124V149.26V149.396V149.487V149.531V149.67V149.805V149.852L47.7597 149.941V150.032V150.124V150.215V150.259V150.398V150.442V150.578H47.7141V150.716V150.761V150.896V150.943L47.6228 150.988V151.079V151.126V151.215L47.5772 151.306V151.353V151.397V151.489H47.4859V151.536V151.671H47.4403V151.763V151.807H47.349V151.898V151.943H47.3034V151.99V152.081H47.2121V152.172H47.1665V152.217L47.0752 152.172V152.261V152.308L46.9839 152.261V152.308L46.9383 152.352H46.847V152.444L46.8014 152.399H46.7101L46.6188 152.352L46.5732 152.308V152.399L46.4819 152.352L46.4363 152.308L46.345 152.261L46.2993 152.217L46.2081 152.172L46.1168 152.125L46.0712 152.081H45.9799L45.9342 152.034L45.843 151.99L45.7517 151.943L45.7061 151.898L45.6148 151.854L45.5691 151.807L45.4779 151.763L45.3866 151.716H45.341L45.2497 151.671L45.204 151.624L45.1128 151.58L45.0671 151.536L44.9759 151.489L44.8389 151.397L44.7477 151.353H44.702L44.6107 151.306L44.4738 151.262L44.3826 151.215L44.3369 151.17L44.1544 151.126L44.1087 151.079L44.0175 151.034L43.8805 150.943L43.7893 150.896L43.7436 150.852L43.6067 150.807H43.5154L43.4698 150.761L43.3785 150.716L43.2416 150.669L43.1503 150.625L43.1047 150.578L43.0134 150.533L42.9678 150.489L42.8765 150.442L42.7396 150.351L42.6483 150.306H42.5571L42.5114 150.259L42.4202 150.215L42.3745 150.168L42.2832 150.124L42.2376 150.079L42.1463 150.032L42.055 149.988H42.0094L41.9181 149.941L41.8725 149.897L41.7812 149.85L41.6899 149.805L41.6443 149.761L41.553 149.714L41.5074 149.67L41.4161 149.623H41.3248H41.2792L41.1879 149.578L41.1423 149.531L41.051 149.487L41.0054 149.443L40.9141 149.487L40.8228 149.443L40.7772 149.396H40.6859L40.6403 149.351L40.4577 149.304H40.4121L40.3208 149.26H40.2752L40.1383 149.213H40.047L39.9557 149.169H39.8188L39.7732 149.122H39.6819L39.545 149.033L39.4537 149.077L39.3168 149.033L39.2712 148.986H39.0886H39.043L38.9061 148.895L38.8148 148.942L38.6779 148.895L38.541 148.803L38.4497 148.85L38.3128 148.803L38.2215 148.759H38.0846L38.0389 148.715L37.902 148.668L37.8108 148.623H37.6738L37.5826 148.576H37.5369L37.3544 148.532H37.3087L37.2175 148.485L37.0805 148.441L37.0349 148.396H36.9436L36.8524 148.349H36.8067L36.7154 148.305L36.5785 148.214L36.4873 148.167L36.4416 148.214L36.3503 148.167L36.3047 148.122L36.2134 148.075L36.1678 148.031L36.0765 147.986L35.9852 147.94L35.9396 147.895H35.8483L35.8027 147.848L35.7114 147.804L35.6201 147.712L35.5745 147.668V147.621L35.4832 147.577V147.485H35.4376V147.394H35.3463V147.303L35.255 147.258V147.211V147.167L35.2094 147.12V147.076L35.1181 146.984V146.94V146.849L35.0269 146.757L34.9812 146.666V146.622V146.575L34.8899 146.483V146.392V146.301L34.8443 146.212V146.165L34.7987 146.029L34.753 145.938V145.894V145.755V145.711L34.6618 145.62V145.528V145.437V145.346L34.6161 145.257V145.21V145.074V145.027L34.5705 144.936L34.5248 144.8V144.709V144.664V144.529V144.482V144.39V144.299V144.21V144.119L34.4336 144.028V143.892V143.845V143.754V143.618V143.574V143.482V143.344V143.3V143.164V143.117L34.4792 143.073V142.981V142.89V142.846V142.707V142.663V142.572V142.48V142.389H34.5705V142.345V142.209V142.162V142.117L34.6161 142.026V141.979V141.935V141.799H34.7074V141.752V141.661V141.57H34.753V141.481V141.434H34.8443V141.298V141.251H34.8899V141.207V141.115H34.9812V141.071L35.0269 141.024V140.98V140.933H35.1181L35.1638 140.888V140.841V140.797H35.255V140.753L35.3463 140.797V140.753L35.392 140.797V140.753H35.4832V140.706L35.5289 140.753V140.706L35.6201 140.753H35.6658L35.7571 140.797V140.753L35.8483 140.797L35.894 140.841L35.9852 140.888H36.0309L36.1222 140.933L36.2134 140.98L36.2591 141.024L36.3503 141.071H36.4873L36.5329 141.115L36.6242 141.162L36.7154 141.207L36.7611 141.162L36.898 141.251L36.9893 141.298L37.0805 141.251L37.1262 141.298L37.2631 141.389H37.3544L37.4913 141.434H37.5826L37.7195 141.525L37.7651 141.481L37.9477 141.525H37.9933L38.1302 141.57H38.3128L38.3584 141.616H38.4953L38.6779 141.661L38.8148 141.752L38.8604 141.708L38.9517 141.57V141.341V141.16V141.022V140.84V140.656V140.428L38.9061 140.29V140.108L38.9973 139.924V139.74V139.512V139.328V139.1V138.964V138.736L38.9517 138.508V138.324V138.095V137.867V137.683V137.455V137.224V136.996V136.86V136.585V136.403V136.175V135.944V135.716V135.532V135.304V135.122V134.938V134.803L38.9061 134.619V134.527V134.343V134.162V133.978V133.842V133.658V133.474V133.291V133.062V132.927V132.743V132.559V132.33V132.195V132.011V131.782V131.598V131.417V131.189L38.8604 130.958V130.822V130.594V130.41L38.8148 130.137V129.886L38.7691 129.658V129.429V129.294V129.065V128.835V128.606V128.425V128.194V127.966V127.784V127.553V127.372V127.188L38.6779 126.96V126.732V126.548V126.319V126.181V126V125.771V125.587V125.459V125.275V125.091V124.908V124.772V124.588V124.407V124.223L38.6322 124.087V123.903V123.767V123.629V123.448V123.356V122.808V122.258V121.757V121.206L38.5866 120.658V120.156V119.564V119.016V118.47L38.6322 117.878V117.283V116.644V116.096V115.457L38.5866 114.862V114.222L38.6779 113.63V112.944L38.6322 112.305V111.621V110.935L38.7235 110.295L38.6779 109.612V108.925V108.242L38.7235 107.556V106.872V106.141L38.7691 105.411V104.68V103.904L38.8148 103.173L38.7691 103.128H38.6779L38.5866 103.082L38.541 103.036V103.128L38.4497 103.082H38.404L38.3128 103.036H38.2215L38.1759 102.991H38.0846L38.0389 102.945H37.9477L37.8564 102.899L37.8108 102.945L37.7195 102.899H37.6738L37.5826 102.854H37.4913L37.4457 102.808H37.3544L37.3087 102.762H37.2175L37.1262 102.717H37.0805H36.9893H36.9436L36.8524 102.671H36.7611L36.7154 102.625H36.6242L36.5785 102.58H36.4873L36.396 102.534H36.3503L36.2591 102.488H36.2134L36.1222 102.443H36.0309L35.9852 102.397H35.894L35.8027 102.351H35.7571L35.6658 102.306V102.351H35.6201L35.5289 102.306H35.4376L35.392 102.26H35.3007L35.255 102.214H35.1638L35.0725 102.169H35.0269L34.9356 102.123H34.8899L34.7987 102.077V102.032H34.7074L34.6618 101.986V101.94L34.5705 101.895L34.5248 101.849L34.4336 101.758V101.712L34.3423 101.666V101.621L34.2967 101.529L34.2054 101.438V101.392V101.347L34.1141 101.255V101.21H34.0685V101.118V101.073L33.9772 100.936V100.89V100.844L33.8859 100.753V100.707V100.662L33.8403 100.57V100.525V100.388L33.749 100.342V100.251V100.205V100.114L33.6577 100.022V99.9768V99.8398V99.7941V99.7485L33.6121 99.6115V99.5658V99.4288V99.3832V99.2918V99.2005L33.5208 99.1092V99.0179V98.9265V98.8352V98.7439V98.6526V98.6069V98.4699V98.3786V98.2416V98.1959L33.4752 97.9689V97.8332V97.6048V97.4222V97.2395L33.5665 97.1026V96.9656V96.7829V96.6003L33.6121 96.5546V96.3719V96.235L33.7034 96.098V96.0066L33.749 95.9153V95.7783L33.8403 95.7327L33.8859 95.6413V95.5043L33.9772 95.4587L34.0685 95.3674H34.1141V95.276L34.2054 95.1847H34.251L34.3423 95.139L34.4336 95.0934L34.4792 95.0477L34.5705 95.0934L34.6161 95.0477L34.7074 95.0934L34.8443 95.0477L34.9356 95.0934L34.9812 95.0477H35.0725L35.1638 95.0934H35.2094L35.3007 95.0477L35.4376 95.0934L35.4832 95.139L35.6658 95.1847L35.7114 95.139L35.8483 95.1847H35.9396L36.0765 95.2304L36.2591 95.276H36.396L36.5329 95.3217H36.6242L36.7611 95.3674L36.898 95.413L37.0349 95.4587L37.2631 95.5043L37.4 95.55H37.5826L37.7195 95.5957L37.9477 95.6413L38.0846 95.687L38.2215 95.7327L38.4497 95.7783L38.6779 95.824L38.8148 95.8697L39.043 95.961L39.1799 96.0066L39.4081 96.0523L39.6363 96.098L39.7732 96.1436L40.0014 96.2806L40.1383 96.3263L40.3665 96.3719L40.549 96.4176L40.7772 96.5546L40.9597 96.6003L41.1423 96.7372L41.3705 96.7829L41.5987 96.9199L41.8269 96.9656L42.055 97.1026L42.2832 97.1939L42.4658 97.3309L42.694 97.4679L42.9222 97.5135L43.2416 97.6505L43.4242 97.7875L43.6524 97.9245L43.8805 98.0615L44.2 98.1985L44.3826 98.3355L44.6107 98.4725L44.9302 98.6551L45.1584 98.7921L45.4322 98.9291L45.7517 99.1117L45.9342 99.2487L46.2537 99.4314L46.4819 99.614L46.5275 99.6597L46.6644 99.751L46.7557 99.8423H46.847V99.888L46.8926 99.9793L46.9839 100.116L47.0752 100.208L47.1208 100.299L47.2121 100.436V100.482L47.3034 100.619L47.349 100.756L47.4403 100.847V100.984L47.5316 101.121V101.304L47.5772 101.441V101.532L47.6685 101.76V101.852V102.034L47.7141 102.262L47.7597 102.445V102.536L47.8054 102.765V102.993V103.176V103.358V103.587V103.769L47.851 103.998V104.135V104.18V104.272V104.409V104.546V104.591V104.728V104.774V104.911V105.002L47.7597 105.048V105.139V105.231V105.322V105.413L47.7141 105.503V105.55V105.595V105.732L47.6228 105.777V105.822V105.96V106.004L47.5316 106.049L47.5772 106.14V106.231L47.4859 106.278V106.323V106.37L47.3946 106.414V106.458L47.349 106.55V106.641H47.2577V106.732V106.777L47.2121 106.824H47.1208V106.915V106.959H47.0752V107.006L46.9839 106.959V107.051H46.8926L46.847 107.095L46.7557 107.142H46.6644L46.7101 107.186L46.6188 107.142H46.5275V107.186H46.4819L46.3906 107.15ZM63.8242 160.53L63.7329 160.621L63.596 160.666L63.5047 160.757L63.3678 160.801L63.2309 160.848L63.1852 160.94L63.0027 160.984L62.8658 161.031L62.7289 161.075L62.6832 161.167L62.5007 161.211L62.3638 161.258L62.2269 161.302L62.0899 161.258H61.8618L61.7248 161.302L61.5879 161.349L61.451 161.394L61.2228 161.441H61.0859H60.949H60.7208L60.5839 161.485H60.3557H60.1275H59.9906H59.7624H59.5799H59.3517L59.1235 161.441L58.9866 161.485H58.7584L58.5302 161.441H58.3477L58.1195 161.349H57.9826H57.7544L57.6175 161.302L57.3893 161.258L57.1611 161.211L57.0242 161.167H56.8873L56.6591 161.075H56.5222L56.294 160.984H56.1571H56.0201L55.792 160.893L55.655 160.801H55.5181H55.3812L55.2443 160.713L55.0618 160.666L54.9248 160.574L54.6967 160.53L54.5597 160.439H54.4228L54.3772 160.394L54.1946 160.303L54.0577 160.211L53.9208 160.12H53.7839L53.647 160.029L53.5557 159.984L53.4188 159.893L53.3275 159.846L53.2819 159.755L53.1906 159.71L53.145 159.666L52.9624 159.575H52.9168L52.8255 159.436L52.7799 159.392L52.6886 159.348L52.5973 159.256L52.5517 159.209L52.4604 159.118L52.4148 159.074L52.3235 158.982L52.2322 158.938V158.891L52.1866 158.847L52.0953 158.708L52.0497 158.62L51.9584 158.528L51.8671 158.481V158.437L51.8215 158.346L51.7302 158.21L51.6846 158.119V158.072L51.5933 157.936V157.892L51.502 157.8L51.4564 157.709V157.618L51.3651 157.482L51.3195 157.298L51.2738 157.207L51.2282 157.023L51.1369 156.887V156.751L51.0913 156.567V156.476L51 156.248V156.112L50.9087 155.884V155.7L50.8631 155.564V155.38L50.7718 155.152V154.968V154.784L50.6805 154.556V154.372V154.143L50.6349 153.915V153.687V153.503V153.275V153.046L50.5436 152.818V152.543V152.314V152.086V151.858V151.582V151.307V150.943L50.498 150.579V150.168V149.802L50.5893 149.391V149.027V148.616V148.252L50.5436 147.885V147.474V147.11V146.699L50.6349 146.379V146.013V145.604V145.238V144.827L50.5893 144.463V144.005L50.6805 143.685V143.321V142.91V142.546V142.135L50.6349 141.769V141.405V140.994L50.7262 140.674V140.263V139.899V139.441V139.077L50.6805 138.027L50.7718 136.977L50.7262 135.882V134.785V133.69L50.7718 132.64V131.498V130.404V129.262L50.8175 128.167V127.026V125.884L50.7718 124.743V123.511L50.8631 122.414L50.8175 121.18V120.041V118.851V117.619L50.7718 116.432V115.198V113.964V112.732L50.8175 111.498V110.264V109.032L50.7718 107.751V106.472V105.195V103.871L50.7262 102.592V101.258V101.212V101.075V100.984V100.893V100.801V100.756V100.619V100.482V100.436V100.299L50.8175 100.253L50.7718 100.162V100.071V100.025V99.888V99.8423L50.8631 99.751V99.7054V99.614V99.5227V99.4314L50.9087 99.3857V99.34V99.2031V99.1574L51 99.1117V99.0661V98.9291L51.0913 98.8834V98.8377V98.7921L51.1369 98.7464V98.7008V98.6094L51.2282 98.5638V98.5181V98.4725L51.2738 98.4268V98.3355H51.3651V98.2441V98.1985L51.4564 98.1528V98.1071H51.502V98.0615V98.0158H51.5933V97.9702H51.6389V97.9245H51.7302V97.8788H51.8215V97.8332H51.8671H51.9584H52.004H52.0953L52.1866 97.8788H52.2322L52.3235 97.9245V97.9702H52.3691L52.4604 98.0158V98.0615L52.5517 98.1071V98.1528H52.5973V98.2441H52.6886V98.3355H52.7342L52.7799 98.3811V98.4725H52.8255V98.5181L52.9168 98.6094V98.7008L52.9624 98.7464V98.8377V98.8834L53.0537 98.9747V99.0204V99.0661L53.145 99.1574V99.2031L53.1906 99.2944V99.3857V99.4314L53.2819 99.5227V99.5684V99.7054V99.751L53.3732 99.8423V99.888V100.025V100.071L53.4188 100.162V100.208V100.345V100.39L53.5101 100.482V100.619V100.664V100.801V100.847V100.938V101.03L53.6014 101.121V101.258V101.304V101.441V101.532V101.623V101.76V101.806V101.943V102.034V102.125V103.45V104.82L53.647 106.098V107.421V108.702V110.025V111.304L53.6926 112.582V113.861V115.139V116.374L53.647 117.608V118.839V120.074L53.6926 121.308V122.539V123.774V124.961L53.647 126.102V127.337V128.478V129.665L53.6926 130.807L53.6014 131.946L53.647 133.136V134.275L53.5557 135.372L53.6014 136.514V137.608V138.703L53.5557 139.844V140.942V141.077V141.261V141.443V141.627V141.811L53.4644 141.946V142.13V142.312V142.495V142.679L53.5101 142.863V143.045V143.229V143.413V143.548V143.732V143.916V144.097L53.4188 144.236V144.417V144.601V144.785V144.966V145.15V145.334V145.518L53.4644 145.7V145.883V146.067V146.203V146.387V146.571L53.3732 146.752V146.936V147.12V147.302V147.485V147.669V147.853V148.035V148.219V148.403V148.586L53.3275 148.768V148.952V149.136V149.317V149.501V149.685V149.869V149.958V150.142V150.325V150.509V150.645V150.829V151.01V151.149V151.33V151.421V151.605V151.789V151.925V152.109L53.647 152.245L53.8752 152.38L54.0577 152.427L54.3772 152.609L54.6054 152.656L54.8792 152.747L55.1074 152.883L55.3812 152.974H55.655L55.8832 153.065H56.1571L56.4765 153.157L56.7503 153.201L57.0242 153.248H57.3436L57.6175 153.292L57.8913 153.248L58.2108 153.201L58.4846 153.248H58.8497L59.1235 153.201L59.443 153.11H59.8081L60.0819 153.065L60.447 153.018L60.7208 152.929L61.0859 152.838L61.451 152.791L61.8161 152.656L62.0899 152.564L62.455 152.428L62.8201 152.337V152.29L62.9114 152.337L62.9571 152.382V152.29L63.0483 152.337L63.1396 152.382V152.337H63.1852L63.2765 152.382L63.3222 152.428L63.4134 152.473L63.4591 152.52V152.564L63.5504 152.609L63.6416 152.7L63.6873 152.747V152.791L63.7785 152.838V152.883L63.8242 153.018V153.065L63.9154 153.11V153.157L64.0067 153.248V153.337V153.384L64.0524 153.428V153.519L64.1436 153.611V153.655L64.1893 153.746V153.885V153.976L64.2806 154.065V154.112V154.203L64.3718 154.339V154.43V154.474L64.4175 154.566V154.657V154.793L64.5087 154.884V154.931V155.02V155.158V155.203L64.6 155.294V155.385V155.476V155.568V155.612L64.6456 155.796V155.841V155.932V156.068V156.115V156.25V156.297V156.386V156.477V156.569L64.7369 156.753V156.797V156.935V156.98V157.115V157.162V157.298V157.434V157.618V157.753V157.892L64.6456 158.027V158.163L64.6913 158.301V158.437V158.528V158.664L64.6 158.755V158.891V159.027L64.5544 159.118V159.256V159.348L64.4631 159.436V159.575L64.3718 159.619V159.755L64.3262 159.846V159.893L64.2349 159.984V160.029L64.1893 160.12L64.098 160.165V160.303H64.0524L63.9611 160.347V160.483H63.8698L63.8242 160.53ZM81.8054 173.999L81.6685 173.908L81.5316 173.772L81.349 173.636L81.2121 173.453L81.0752 173.317L80.9383 173.088L80.8014 172.858L80.5732 172.538L80.4363 172.31L80.2993 172.037L80.0712 171.626L79.9342 171.306L79.7061 170.895L79.5691 170.529L79.341 170.073L79.204 169.662L78.9759 169.16L78.7477 168.659L78.5195 168.111L78.3369 167.609L78.1544 167.061L77.9718 166.422L77.7436 165.827L77.5154 165.188L77.2416 164.501L77.0134 163.818L76.7852 163.178L76.5571 162.448L76.3289 161.626L76.055 160.895L75.8269 160.076L75.553 159.254L75.4161 158.796L75.3248 158.341L75.1879 157.885L75.0054 157.474L74.8685 156.972L74.7316 156.517L74.5946 156.014L74.4577 155.559L74.3665 155.192L74.2295 154.691L74.0926 154.233L73.9101 153.731L73.7732 153.276L73.6363 152.82L73.545 152.409L73.4081 151.954L73.2712 151.496L73.1342 150.995L72.9973 150.537L72.8148 150.082L72.6779 149.671L72.5866 149.216L72.4497 148.758L72.3128 148.302L72.1758 147.847L72.0389 147.436L71.8564 146.981L71.7195 146.478L71.6282 146.067L71.4913 145.612L71.3544 145.11L71.2175 144.743V144.79V144.881V144.926V145.017V145.061V145.108V145.2V145.244V145.975V146.661V147.3V147.984V148.623V149.309V150.04V150.679V151.363L71.2631 152.002V152.688V153.417V154.103V154.742V155.426V156.068V156.751V157.482V158.121V158.805V159.444V160.13V160.77V161.5V162.184V162.823V163.509V164.149V164.879L71.3087 165.563V166.202V166.888V167.161V167.392V167.62V167.804V168.077L71.2175 168.261V168.445V168.626V168.854L71.1718 168.946V169.13V169.265L71.0806 169.404V169.539L71.0349 169.631V169.767L70.9436 169.858V169.949L70.8524 169.994L70.8067 170.04V170.176L70.7155 170.221H70.6698L70.5785 170.268H70.5329V170.359H70.4416L70.3503 170.312L70.3047 170.268L70.2134 170.312L70.1678 170.268L70.0765 170.221L69.9852 170.176L69.9396 170.132L69.8483 170.085L69.8027 169.994L69.7114 169.949L69.6658 169.813L69.5745 169.722V169.675L69.4832 169.631L69.4376 169.495V169.448L69.3463 169.357V169.265L69.3007 169.174V169.085L69.2094 168.994L69.1181 168.903V168.811L69.0725 168.72V168.584L68.9812 168.493V168.357L68.8899 168.266V168.128V168.039L68.8443 167.855V167.764L68.753 167.628V167.49L68.7074 167.354V167.218V167.127V166.991L68.6161 166.853V166.764V166.626L68.5248 166.445V166.398V166.262V166.126L68.4792 165.988V165.897V165.761V165.625V165.534L68.3879 165.398V165.26V165.124V165.033V164.941V164.806V164.67V164.532L68.2967 164.396V164.26V164.125V163.986V163.851V163.715V163.624V163.488V162.893V162.298V161.659V160.975V160.336V159.605V158.875V158.188V157.46V156.683V155.861V155.086L68.3423 154.311V153.441V152.573V151.754V150.792V149.88L68.2967 148.966V148.054V147.092V146.089L68.3879 145.083V144.124V143.074L68.3423 141.935V140.885V139.787V138.648L68.4336 137.598V136.408L68.3879 135.221V134.034V132.939V131.749L68.4792 130.655L68.4336 129.56V128.51V127.46V126.409V125.359V124.4V123.394V122.435L68.4792 121.476V120.518V119.603V118.691V117.869V117.002V116.134V115.312V114.49V113.715L68.4336 112.938V112.207V111.479V110.793V110.062V109.378V108.739V108.1V107.505V106.91V106.737V106.602V106.555V106.419L68.5248 106.375V106.236L68.4792 106.101V106.056V105.918V105.824V105.688V105.644V105.506L68.5705 105.461V105.326V105.279V105.187V105.096V105.005L68.6161 104.959V104.822V104.776V104.683L68.7074 104.637V104.5V104.454V104.409L68.7987 104.363V104.272V104.226L68.8443 104.089V104.043V103.998L68.9356 103.952V103.861L69.0269 103.815V103.769V103.678L69.0725 103.632V103.587V103.495L69.1638 103.45V103.404H69.2094V103.358L69.3007 103.313V103.221L69.3463 103.176L69.4376 103.13L69.5289 103.176V103.13H69.5745V103.039L69.6658 103.084H69.7571L69.8027 103.039L69.894 103.084H69.9396L70.0309 103.13V103.176H70.1222L70.1678 103.221L70.2591 103.313L70.3047 103.404H70.396V103.495H70.4873V103.587L70.5329 103.632V103.724L70.6242 103.815L70.7155 103.906V103.952V104.043L70.7611 104.089V104.18L70.8524 104.272V104.317V104.409L70.898 104.5V104.546V104.637L70.9893 104.683V104.82V104.911L71.0349 105.002V105.048V105.139L71.1262 105.185V105.323V105.413V105.459L71.2175 105.55V105.686V105.777V105.822V105.96L71.2631 106.051V106.096V106.231V106.323V106.414L71.3087 106.505L71.3544 106.641V106.732V106.868V106.915V107.051V107.186V107.233V107.369V107.46V107.596V107.734V108.007V108.235V108.511V108.786V109.059V109.378V109.654V109.973V110.293V110.657V110.977L71.4 111.296V111.707V112.027V112.438V112.849L71.3087 113.213V113.624V113.99V114.401V114.857V115.268V115.723V116.181V116.636V117.139V117.594L71.3544 118.049L71.2631 118.552V119.099V119.555V120.057V120.605V121.063V121.611V122.066L71.2175 122.524V122.98V123.435V123.893V124.301V124.759V125.17V125.625V126.036V126.401V126.811L71.1262 127.178V127.589V127.997L71.1718 128.317V128.728V129.048V129.459V129.778V130.098V130.465V130.693V131.057V131.377V131.607V131.971V132.247V132.475L71.3087 132.2L71.4 131.927L71.5369 131.652L71.6738 131.377L71.7195 131.012L71.902 130.737L72.0389 130.465L72.1758 130.098L72.2671 129.825L72.404 129.459L72.541 129.139L72.6779 128.819L72.8148 128.5L72.9061 128.136L73.043 127.769L73.1799 127.358L73.3168 126.994L73.4993 126.674L73.6363 126.308L73.7732 125.899L73.9101 125.58L74.047 125.122L74.1839 124.711L74.3665 124.3L74.5034 123.892L74.6403 123.481L74.7772 123.07L74.9141 122.612L75.0967 122.203L75.2336 121.792L75.3705 121.29L75.5074 120.879L75.5987 120.515L75.7356 120.057L75.8725 119.738L76.0094 119.282L76.1463 118.916L76.2376 118.552L76.3745 118.141L76.5114 117.777L76.694 117.366L76.7396 116.955L76.8765 116.544L77.0134 116.18L77.196 115.813L77.2416 115.358L77.3785 114.991L77.5611 114.58L77.698 114.216L77.8349 113.852L77.9262 113.394L78.0631 113.03L78.2 112.572L78.3369 112.208L78.4282 111.844L78.5651 111.386L78.702 111.022L78.8389 110.611L79.0215 110.245L79.0671 109.845L79.204 109.387L79.3866 109.023L79.5235 108.612L79.5691 108.201L79.6604 108.11V108.019L79.7061 107.883V107.838L79.7973 107.792V107.656V107.564L79.8886 107.52V107.473L79.9342 107.429V107.337L80.0255 107.29V107.246L80.1168 107.202V107.11L80.1624 107.063V106.966L80.2537 107.013V106.921L80.2993 106.874L80.3906 106.83L80.4819 106.874V106.786L80.5275 106.83H80.6188H80.7101L80.7557 106.874H80.847L80.8926 106.921L80.9839 107.013H81.0295L81.1208 107.104L81.2121 107.195V107.284H81.2577V107.375L81.349 107.467L81.3946 107.558V107.603L81.4859 107.694V107.785L81.5772 107.877V107.921L81.6228 108.012V108.104V108.15L81.7141 108.242V108.331L81.8054 108.469V108.56V108.605L81.851 108.696V108.787V108.832L81.9423 108.923V109.059V109.15V109.197L81.9879 109.286V109.424V109.515L82.0792 109.607V109.742V109.787V109.878V110.014V110.105L82.1705 110.243V110.288V110.423V110.515V110.651V110.742V110.88V110.925V111.06L82.2161 111.152V111.287V111.426V111.517V111.653V111.837L82.1705 112.065V112.249V112.521L82.0792 112.705V112.978L82.0336 113.345L81.9423 113.573V113.94L81.851 114.259L81.8054 114.623L81.6685 114.943L81.5772 115.354L81.4859 115.718L81.349 116.176L81.3034 116.587L81.1208 117.012L80.9839 117.47L80.9383 117.972L80.7557 118.473L80.6188 119.021L80.4819 119.523L80.2537 119.981L80.1168 120.573L79.8886 121.121L79.7517 121.716L79.5235 122.264L79.3866 122.903L79.1584 123.543L78.9759 124.182L78.7477 124.821L78.5195 125.508L78.2913 125.963L78.1544 126.374L78.0175 126.876L77.8805 127.287L77.6524 127.788L77.5154 128.199L77.3785 128.61L77.196 129.112L77.0591 129.523L76.8309 129.979L76.694 130.39L76.5571 130.892L76.4202 131.303L76.192 131.758L76.055 132.169L75.9181 132.58L75.6899 133.036L75.553 133.447L75.4161 133.949L75.2336 134.36L75.051 134.768L74.9141 135.226L74.7316 135.637L74.5946 136.048L74.3665 136.412L74.2295 136.914L74.0926 137.325L73.8644 137.689L73.7275 138.1L73.5906 138.511L73.3624 138.967L73.2255 139.378L73.3624 139.744L73.4537 140.108L73.5906 140.519L73.6819 140.883L73.8188 141.341L73.9557 141.752L74.0926 142.208L74.2752 142.663L74.3208 143.121L74.4577 143.576L74.6859 144.078L74.8685 144.626L75.0054 145.082L75.1423 145.63L75.2792 146.178L75.4161 146.728L75.6443 147.276L75.7812 147.824L76.0094 148.419L76.1463 149.011L76.3745 149.651L76.5571 150.199L76.7396 150.84L76.9678 151.48L77.1047 152.119L77.3329 152.85L77.5611 153.489L77.7893 154.219L78.0175 154.859L78.2 155.587L78.4282 156.317L78.6564 157.004L78.7477 157.188L78.7933 157.369V157.46L78.8846 157.596V157.734L78.9302 157.87L79.0215 158.054V158.145L79.1128 158.281L79.1584 158.465V158.556L79.2497 158.738L79.2953 158.876V159.012L79.3866 159.147L79.4779 159.283V159.421L79.5235 159.603V159.741L79.6148 159.832L79.6604 160.014V160.152L79.7517 160.241L79.843 160.425V160.56L79.8886 160.652L79.9799 160.836V160.971L80.0255 161.155L80.1168 161.247V161.382L80.2081 161.566L80.2537 161.702V161.84L80.345 161.976L80.3906 162.112V162.247L80.4819 162.339L80.5732 162.523L80.6188 162.614V162.75L80.7101 162.885L80.7557 163.024L80.847 163.159V163.204L80.9383 163.388L80.9839 163.526L81.0752 163.615L81.1208 163.799V163.846L81.2121 163.981L81.3034 164.073L81.349 164.164V164.253L81.4403 164.437L81.4859 164.528L81.5772 164.619V164.711L81.6685 164.802L81.7141 164.938L81.8054 165.029L81.851 165.073V165.12L81.9423 165.256L81.9879 165.347L82.0792 165.439L82.1705 165.62L82.2161 165.758L82.3074 165.85L82.3987 166.031V166.078L82.4443 166.214L82.5356 166.398L82.5812 166.579V166.626L82.6725 166.81V166.946L82.7181 167.037L82.8094 167.221V167.356L82.9007 167.54V167.676V167.812L82.9463 167.996V168.132V168.36L83.0376 168.544V168.679V168.863V169.047L83.1289 169.276V169.411V169.64V169.824V169.959V170.19V170.326V170.417V170.462V170.553V170.689V170.736V170.827V170.963V171.007V171.098V171.145L83.0376 171.237V171.325V171.417V171.464V171.599V171.691V171.735V171.826L82.9463 171.918V172.009V172.053V172.1V172.282V172.329L82.9007 172.373V172.42V172.556V172.647L82.8094 172.691V172.83V172.874V172.965L82.7638 173.057V173.101V173.239L82.6725 173.284V173.328L82.5812 173.375V173.511V173.602H82.5356V173.694L82.4443 173.738V173.785L82.3987 173.829V173.876L82.3074 173.921V173.967L82.2618 174.012L82.1705 174.056L82.0792 174.012V174.056L82.0336 174.012L81.9423 174.056L81.8967 174.012L81.8054 173.967V173.999Z" fill="black"/>
</g>
<defs>
<clipPath id="clip0_421_17">
<rect width="170" height="209" fill="white"/>
</clipPath>
</defs>
</svg>
