<svg width="237" height="188" viewBox="0 0 237 188" fill="none" xmlns="http://www.w3.org/2000/svg">
<path fill-rule="evenodd" clip-rule="evenodd" d="M221.65 40.9C214.742 34.9276 204.759 27.8187 196.85 23.2645C189.759 19.1813 179.765 14.6458 172.051 11.9274C161.157 8.08841 146.112 4.31825 134.681 2.68633C123.877 1.14418 109.242 0.740197 98.3363 1.14989C94.8671 1.27999 90.2781 1.97764 86.8245 2.33256C78.339 12.7031 66.9884 26.5002 58.54 36.9012C41.5145 57.8609 19.013 85.9692 2.07279 106.998C15.5988 104.108 33.6509 100.334 47.1595 97.3633C103.59 84.9535 178.609 67.4063 234.944 54.5678C234.944 54.5678 225.976 44.6401 221.65 40.9Z" fill="#FEE04E" stroke="#FEE04E" stroke-linecap="round" stroke-linejoin="round"/>
<path fill-rule="evenodd" clip-rule="evenodd" d="M46.6366 82.5722C47.2334 82.5662 47.8124 82.619 48.3531 82.8073C49.0141 83.0379 49.6462 83.3772 50.1501 83.8702C50.6677 84.3765 51.0632 85.0232 51.3085 85.7357C51.5266 86.3686 51.5797 87.0697 51.5292 87.7971C51.4777 88.5396 51.3032 89.2304 51.0139 89.8493C50.7071 90.5059 50.2787 91.078 49.7778 91.5619C49.2761 92.0469 48.6948 92.4334 48.0604 92.7118C47.4912 92.9618 46.8781 93.1101 46.2312 93.1455C45.4558 93.1877 44.6902 93.125 43.9963 92.853C43.3323 92.5928 42.7408 92.1625 42.2474 91.6403C41.7958 91.1621 41.4326 90.5865 41.1986 89.9437C40.9472 89.2517 40.8198 88.4829 40.8918 87.6848C40.9601 86.9351 41.2301 86.2602 41.5509 85.6482C41.8933 84.9943 42.3244 84.4092 42.8511 83.9341C43.3372 83.4951 43.8981 83.1524 44.5063 82.9218C45.1736 82.6692 45.893 82.5798 46.6366 82.5722Z" fill="#FE8B14"/>
<path fill-rule="evenodd" clip-rule="evenodd" d="M93.5331 24.65C95.3964 24.0398 97.2408 23.5989 99.1204 23.5811C101.35 23.5601 103.614 23.8036 105.674 24.6926C107.66 25.5492 109.508 26.8776 110.917 28.6328C112.119 30.1297 112.916 32.0047 113.387 34.0429C113.872 36.1396 113.897 38.2178 113.541 40.1624C113.146 42.3143 112.257 44.2894 111.14 46.0723C109.966 47.945 108.456 49.5518 106.744 50.9251C105.157 52.1968 103.366 53.1946 101.38 53.9322C98.9881 54.8204 96.562 55.4267 94.117 55.3613C91.865 55.3012 89.6324 54.7675 87.5851 53.7925C85.812 52.9481 84.1425 51.7715 82.832 50.2035C81.4768 48.5822 80.3881 46.595 79.9217 44.3399C79.4781 42.196 79.7719 40.0779 80.2323 38.1204C80.7442 35.9441 81.6318 33.9261 82.8327 32.1428C83.9972 30.4134 85.4783 28.9474 87.1521 27.7289C89.0461 26.35 91.2136 25.4096 93.5331 24.65Z" fill="#FE8B14"/>
<path fill-rule="evenodd" clip-rule="evenodd" d="M158.283 15.0151C159.618 14.5948 160.938 14.297 162.281 14.2966C163.88 14.2962 165.5 14.4852 166.975 15.1274C168.398 15.7467 169.724 16.6954 170.739 17.9511C171.598 19.0151 172.177 20.3457 172.519 21.7966C172.869 23.2794 172.895 24.7515 172.643 26.1282C172.365 27.6468 171.733 29.0402 170.938 30.294C170.101 31.6136 169.022 32.74 167.801 33.6986C166.666 34.5906 165.384 35.2826 163.968 35.7904C162.253 36.4055 160.516 36.8144 158.771 36.7528C157.155 36.6958 155.558 36.302 154.091 35.5983C152.82 34.9893 151.622 34.1482 150.679 33.0264C149.71 31.8734 148.921 30.4636 148.582 28.8572C148.262 27.3421 148.464 25.8425 148.79 24.4579C149.152 22.9222 149.783 21.4987 150.638 20.2453C151.469 19.0272 152.529 18.0005 153.721 17.1511C155.077 16.1845 156.628 15.5363 158.283 15.0151Z" fill="#FE8B14"/>
<path fill-rule="evenodd" clip-rule="evenodd" d="M2.18428 107.471C72.0149 91.5965 165.122 70.4309 234.952 54.5568C234.952 54.5644 234.986 109.713 235 133.351C234.977 133.357 71.9823 170.156 2.11716 185.929C2.11716 185.927 2.05269 166.684 2.02501 158.436C2.02539 158.436 4.53562 158.275 5.58332 158.039C6.79028 157.767 8.37111 157.235 9.47834 156.682C10.526 156.159 11.8714 155.316 12.7242 154.512C13.6866 153.604 14.6884 152.116 15.3747 150.984C16.0577 149.858 16.8232 148.263 17.268 147.022C17.4614 146.484 17.6791 145.745 17.7549 145.178C17.9748 143.531 17.9286 141.279 17.6468 139.642C17.5168 138.886 17.1683 137.915 16.8896 137.2C16.5878 136.427 16.1297 135.413 15.6993 134.704C15.1575 133.811 14.3138 132.688 13.5895 131.936C12.8603 131.179 11.769 130.278 10.8848 129.711C10.1692 129.252 9.11584 128.815 8.34229 128.463C7.65331 128.15 6.75349 127.657 6.01635 127.486C4.86096 127.219 3.25206 127.372 2.06748 127.323C2.06748 127.321 2.02009 113.427 1.99999 107.471C2.05535 107.471 2.12891 107.471 2.18428 107.471Z" fill="#FABE12"/>
<path d="M234.952 54.5568C165.122 70.4309 72.0149 91.5965 2.18428 107.471C2.12891 107.471 2.05535 107.471 1.99999 107.471C2.02009 113.427 2.06748 127.321 2.06748 127.323C3.25206 127.372 4.86096 127.219 6.01635 127.486C6.75349 127.657 7.65331 128.15 8.34229 128.463C9.11584 128.815 10.1692 129.252 10.8848 129.711C11.769 130.278 12.8603 131.179 13.5895 131.936C14.3138 132.688 15.1575 133.811 15.6993 134.704C16.1297 135.413 16.5878 136.427 16.8896 137.2C17.1683 137.915 17.5168 138.886 17.6468 139.642C17.9286 141.279 17.9748 143.531 17.7549 145.178C17.6791 145.745 17.4614 146.484 17.268 147.022C16.8232 148.263 16.0577 149.858 15.3747 150.984C14.6884 152.116 13.6866 153.604 12.7242 154.512C11.8714 155.316 10.526 156.159 9.47834 156.682C8.37111 157.235 6.79028 157.767 5.58332 158.039C4.53562 158.275 2.02501 158.436 2.02501 158.436C2.05269 166.684 2.11716 185.927 2.11716 185.929C71.9823 170.156 234.977 133.357 235 133.351C234.986 109.713 234.952 54.5644 234.952 54.5568Z" stroke="#FABE12" stroke-width="4" stroke-linecap="round" stroke-linejoin="round"/>
<path fill-rule="evenodd" clip-rule="evenodd" d="M74.058 106.588C75.3787 106.574 76.6588 106.691 77.8552 107.108C79.3177 107.618 80.7161 108.369 81.831 109.459C82.9765 110.579 83.8516 112.01 84.3939 113.586C84.8762 114.987 84.9941 116.538 84.8823 118.147C84.7685 119.79 84.3829 121.319 83.7425 122.688C83.0637 124.14 82.1157 125.406 81.0074 126.477C79.8971 127.549 78.6113 128.404 77.2075 129.021C75.9486 129.573 74.5919 129.901 73.1612 129.98C71.4454 130.074 69.7511 129.935 68.2166 129.333C66.7472 128.757 65.439 127.805 64.3473 126.65C63.3482 125.592 62.5443 124.319 62.0271 122.896C61.4704 121.366 61.1883 119.665 61.3483 117.899C61.4989 116.24 62.0965 114.747 62.8063 113.393C63.5639 111.946 64.5176 110.652 65.6828 109.6C66.7586 108.63 67.9989 107.871 69.3446 107.361C70.8212 106.803 72.4123 106.604 74.058 106.588Z" fill="#FE8B14"/>
<path fill-rule="evenodd" clip-rule="evenodd" d="M129.083 115.209C130.032 115.199 130.952 115.283 131.811 115.583C132.863 115.949 133.867 116.489 134.669 117.272C135.492 118.077 136.12 119.106 136.511 120.238C136.857 121.245 136.942 122.36 136.861 123.516C136.78 124.696 136.502 125.795 136.042 126.779C135.554 127.822 134.873 128.732 134.077 129.502C133.279 130.273 132.355 130.887 131.346 131.33C130.441 131.727 129.466 131.963 128.438 132.019C127.205 132.086 125.988 131.987 124.885 131.555C123.829 131.14 122.889 130.457 122.104 129.626C121.386 128.866 120.809 127.951 120.437 126.929C120.037 125.829 119.834 124.607 119.949 123.337C120.057 122.145 120.487 121.073 120.997 120.099C121.541 119.06 122.227 118.129 123.064 117.374C123.837 116.676 124.729 116.131 125.695 115.765C126.757 115.363 127.9 115.221 129.083 115.209Z" fill="#FE8B14"/>
<path fill-rule="evenodd" clip-rule="evenodd" d="M198.998 108.783C200.7 108.766 202.349 108.916 203.891 109.453C205.775 110.11 207.577 111.078 209.013 112.483C210.489 113.926 211.617 115.77 212.316 117.8C212.937 119.604 213.089 121.603 212.945 123.676C212.798 125.793 212.301 127.763 211.476 129.527C210.601 131.398 209.38 133.029 207.952 134.408C206.521 135.79 204.865 136.893 203.056 137.687C201.434 138.398 199.686 138.821 197.843 138.922C195.632 139.043 193.449 138.864 191.472 138.089C189.578 137.347 187.893 136.121 186.487 134.632C185.199 133.269 184.164 131.628 183.497 129.795C182.78 127.823 182.417 125.632 182.623 123.356C182.816 121.219 183.587 119.296 184.501 117.551C185.477 115.687 186.706 114.019 188.208 112.664C189.594 111.414 191.192 110.436 192.926 109.78C194.828 109.06 196.878 108.804 198.998 108.783Z" fill="#FE8B14"/>
<path fill-rule="evenodd" clip-rule="evenodd" d="M53.5169 145.946C54.4259 145.937 55.3071 146.017 56.1307 146.304C57.1374 146.655 58.1002 147.172 58.8677 147.923C59.6564 148.694 60.2589 149.679 60.6324 150.764C60.9642 151.728 61.0453 152.796 60.9684 153.903C60.8899 155.034 60.6244 156.087 60.1838 157.03C59.7163 158.029 59.0637 158.901 58.3008 159.638C57.5363 160.376 56.6513 160.965 55.6848 161.389C54.8183 161.769 53.8844 161.995 52.8992 162.049C51.7181 162.114 50.5521 162.018 49.4953 161.604C48.4836 161.208 47.583 160.553 46.8318 159.757C46.144 159.029 45.5908 158.152 45.2343 157.173C44.8513 156.119 44.6572 154.948 44.7672 153.732C44.8707 152.59 45.2821 151.563 45.7709 150.631C46.2923 149.635 46.949 148.744 47.7514 148.02C48.4919 147.351 49.3455 146.829 50.2718 146.478C51.2884 146.094 52.3839 145.957 53.5169 145.946Z" fill="#FE8B14"/>
<path fill-rule="evenodd" clip-rule="evenodd" d="M177.805 67.3835C176.084 66.2168 173.88 64.5126 172.068 63.4942C169.809 62.2248 166.622 60.8489 164.196 59.9386C162.537 59.3159 160.305 58.449 158.55 58.2021C157.644 58.075 156.415 58.2021 155.5 58.2021C155.229 58.3512 154.853 58.5285 154.594 58.6985C153.718 59.2722 152.567 60.1033 151.874 60.8896C151.255 61.5907 150.448 62.6266 150.225 63.5357C150.066 64.1873 150.182 65.1189 150.349 65.7683C150.584 66.6816 151.316 67.7433 151.75 68.5798C152.217 69.4806 153.07 70.583 153.357 71.5569C153.485 71.9875 153.522 73.045 153.522 73.045C160.807 71.3465 177.802 67.3839 177.805 67.3835Z" fill="#FA9841"/>
<path d="M153.522 73.045C153.522 73.045 153.485 71.9875 153.357 71.5569C153.07 70.583 152.217 69.4806 151.75 68.5798C151.316 67.7433 150.584 66.6816 150.349 65.7683C150.182 65.1189 150.066 64.1873 150.225 63.5357C150.448 62.6266 151.255 61.5907 151.874 60.8896C152.567 60.1033 153.718 59.2722 154.594 58.6985C154.853 58.5285 155.229 58.3512 155.5 58.2021C156.415 58.2021 157.644 58.075 158.55 58.2021C160.305 58.449 162.537 59.3159 164.196 59.9386C166.622 60.8489 169.809 62.2248 172.068 63.4942C173.88 64.5126 176.084 66.2168 177.805 67.3835C177.802 67.3839 160.807 71.3465 153.522 73.045Z" stroke="#FA9841" stroke-linecap="round" stroke-linejoin="round"/>
<path fill-rule="evenodd" clip-rule="evenodd" d="M177.393 67.0488C170.206 68.6743 160.506 70.3694 153.435 72.4676C153.435 72.4676 153.113 73.211 153.033 73.5484C152.855 74.3008 152.827 75.3446 152.806 76.1187C152.768 77.4509 152.778 79.2407 152.976 80.558C153.07 81.1842 153.281 82.0058 153.488 82.6027C153.81 83.5335 154.355 84.7364 154.852 85.582C155.35 86.4276 156.113 87.5034 156.786 88.2106C157.737 89.2106 159.197 90.3579 160.368 91.0727C161.425 91.7183 162.926 92.4654 164.12 92.7666C165.365 93.0812 167.106 93.1497 168.385 93.0588C169.863 92.9538 171.834 92.5532 173.218 92.0074C174.373 91.5513 175.838 90.7049 176.799 89.9045C178.067 88.8489 179.565 87.1504 180.382 85.6988C181.291 84.0817 182.064 81.6486 182.315 79.7987C182.503 78.4091 182.383 76.5068 182.144 75.1255C181.975 74.1486 181.554 72.885 181.178 71.9712C180.8 71.0541 180.25 69.8265 179.643 69.0505C179.083 68.3361 177.393 67.0488 177.393 67.0488Z" fill="#FE8B14" stroke="#FE8B14" stroke-linecap="round" stroke-linejoin="round"/>
</svg>
